# AST/ASF file generated using VICON BodyLanguage
# -----------------------------------------------
:version 1.10
:name VICON
:units
  mass 1.0
  length 0.45
  angle deg
:documentation
   .ast/.asf automatically generated from VICON data using
   VICON BodyBuilder and BodyLanguage model FoxedUp or BRILLIANT.MOD
:root
   order TX TY TZ RX RY RZ
   axis XYZ
   position 0 0 0  
   orientation 0 0 0 
:bonedata
  begin
     id 1 
     name lhipjoint
     direction 0.521689 -0.742065 0.420928 
     length 2.47002 
     axis 0 0 0  XYZ
  end
  begin
     id 2 
     name lfemur
     direction 0.34202 -0.939693 0  
     length 7.24654  
     axis 0 0 20  XYZ
    dof rx ry rz
    limits (-160.0 20.0)
           (-70.0 70.0)
           (-60.0 70.0)
  end
  begin
     id 3 
     name ltibia
     direction 0.34202 -0.939693 0   
     length 8.04849   
     axis 0 0 20   XYZ
    dof rx
    limits (-10.0 170.0)
  end
  begin
     id 4 
     name lfoot
     direction 0.0745411 -0.2048 0.975961   
     length 1.72367   
     axis -90 7.62852e-016 20   XYZ
    dof rx rz
    limits (-45.0 90.0)
           (-70.0 20.0)
  end
  begin
     id 5 
     name ltoes
     direction 1.53556e-011 -4.21901e-011 1   
     length 0.87311   
     axis -90 7.62852e-016 20   XYZ
    dof rx
    limits (-90.0 20.0)
  end
  begin
     id 6 
     name rhipjoint
     direction -0.52849 -0.738415 0.418857   
     length 2.48223  
     axis 0 0 0  XYZ 
  end
  begin
     id 7 
     name rfemur
     direction -0.34202 -0.939693 0   
     length 7.15571   
     axis 0 0 -20   XYZ
    dof rx ry rz
    limits (-160.0 20.0)
           (-70.0 70.0)
           (-70.0 60.0)
  end
  begin
     id 8 
     name rtibia
     direction -0.34202 -0.939693 0   
     length 7.81659   
     axis 0 0 -20   XYZ
    dof rx
    limits (-10.0 170.0)
 end
 begin
     id 9 
     name rfoot
     direction -0.0917348 -0.252039 0.963359   
     length 1.84382  
     axis -90 -7.62852e-016 -20   XYZ
    dof rx rz
    limits (-45.0 90.0)
           (-20.0 70.0)
  end
  begin
     id 10 
     name rtoes
     direction -1.53551e-011 -4.21879e-011 1   
     length 0.927771   
     axis -90 -7.62852e-016 -20   XYZ
    dof rx
    limits (-90.0 20.0)
  end
  begin
     id 11 
     name lowerback
     direction 0.00583058 0.999822 0.0179296   
     length 2.1429   
     axis 0 0 0   XYZ
    dof rx ry rz
    limits (-20.0 45.0)
           (-30.0 30.0)
           (-30.0 30.0)
  end
  begin
     id 12 
     name upperback
     direction -0.0137999 0.999752 -0.0175071   
     length 2.14252   
     axis 0 0 0   XYZ
    dof rx ry rz
    limits (-20.0 45.0)
           (-30.0 30.0)
           (-30.0 30.0)
  end
  begin
     id 13 
     name thorax
     direction -0.0158036 0.99955 -0.0254909   
     length 2.1383   
     axis 0 0 0   XYZ
    dof rx ry rz
    limits (-20.0 45.0)
           (-30.0 30.0)
           (-30.0 30.0)
  end
  begin
     id 14 
     name lowerneck
     direction -0.0101179 0.999403 -0.0330262   
     length 1.65808   
     axis 0 0 0   XYZ
    dof rx ry rz
    limits (-20.0 45.0)
           (-30.0 30.0)
           (-30.0 30.0)
  end
  begin
     id 15 
     name upperneck
     direction 0.0497734 0.995978 -0.074501   
     length 1.5897   
     axis 0 0 0   XYZ
    dof rx ry rz
    limits (-20.0 45.0)
           (-30.0 30.0)
           (-30.0 30.0)
  end
  begin
     id 16
     name head
     direction 0.0189524 0.999519 -0.0245438  
     length 1.74024  
     axis 0 0 0   XYZ
    dof rx ry rz
    limits (-20.0 45.0)
           (-30.0 30.0)
           (-30.0 30.0)
  end
  begin
     id 17 
     name lclavicle
     direction 0.945604 0.324422 0.0241537  
     length 3.59089  
     axis 0 0 0   XYZ
    dof ry rz
    limits (-20.0 10.0)
           (0.0 20.0)
  end
  begin
     id 18 
     name lhumerus
     direction 1 -4.48964e-011 -2.63524e-027   
     length 5.2391   
     axis 180 -30 -90   XYZ
    dof rx ry rz
    limits (-60.0 90.0)
           (-90.0 90.0)
           (-90.0 90.0)
  end
  begin
     id 19
     name lradius
     direction 1 -4.48969e-011 3.86978e-028   
     length 3.31467   
     axis 180 -30 -90   XYZ
    dof rx
    limits (-10.0 170.0)
  end
  begin
     id 20
     name lwrist
     direction 1 -4.48963e-011 7.20928e-028   
     length 1.65734   
     axis -5.52449e-016 90 90   XYZ
    dof ry
    limits (-180.0 0.0)
 end
  begin
     id 21 
     name lhand
     direction 1 -4.48964e-011 1.44186e-027   
     length 0.9659   
     axis -9.20027e-016 90 90   XYZ
    dof rx rz
    limits (-90.0 90.0)
           (-45.0 45.0)
  end
  begin
     id 22 
     name lfingers
     direction 1 -4.48965e-011 2.88371e-027   
     length 0.778733   
     axis -1.84005e-015 90 90   XYZ
    dof rx
    limits (0.0 90.0)
  end
  begin
     id 23
     name lthumb
     direction 0.707107 -6.34931e-011 0.707107   
     length 1.11811   
     axis -90 45 2.85299e-015   XYZ
    dof rx rz
    limits (-45.0 45.0)
           (-45.0 45.0)
  end
  begin
     id 24 
     name rclavicle
     direction -0.923762 0.370785 0.0958234   
     length 3.54196  
     axis 0 0 0   XYZ 
    dof ry rz
    limits (-10.0 20.0)
           (-20.0 0.0)
  end
  begin
     id 25 
     name rhumerus
     direction -1 -4.48966e-011 1.18702e-017  
     length 5.30252   
     axis 180 30 90   XYZ
    dof rx ry rz
    limits (-90.0 60.0)
           (-90.0 90.0)
           (-90.0 90.0)
  end
  begin
     id 26 
     name rradius
     direction -1 -4.48966e-011 4.46736e-027   
     length 3.67875   
     axis 180 30 90   XYZ
    dof rx
    limits (-10.0 170.0)
  end
  begin
     id 27 
     name rwrist
     direction -1 -4.48966e-011 7.20928e-028   
     length 1.83937   
     axis -5.52449e-016 -90 -90   XYZ
    dof ry
    limits (-180.0 0.0)
  end
  begin
     id 28
     name rhand
     direction -1 -4.48973e-011 1.44186e-027   
     length 0.594811   
     axis -9.20027e-016 -90 -90   XYZ
    dof rx rz
    limits (-90.0 90.0)
           (-45.0 45.0)
  end
  begin
     id 29
     name rfingers
     direction -1 -4.48963e-011 2.88371e-027   
     length 0.479552   
     axis -1.84005e-015 -90 -90   XYZ
    dof rx
    limits (0.0 90.0)
  end
  begin
     id 30
     name rthumb
     direction -0.707107 -6.34932e-011 0.707107   
     length 0.688544   
     axis -90 -45 -2.85299e-015   XYZ
    dof rx rz
    limits (-45.0 45.0)
           (-45.0 45.0)
  end
:hierarchy
  begin
    root lhipjoint rhipjoint lowerback
    lhipjoint lfemur
    lfemur ltibia
    ltibia lfoot
    lfoot ltoes
    rhipjoint rfemur
    rfemur rtibia
    rtibia rfoot
    rfoot rtoes
    lowerback upperback
    upperback thorax
    thorax lowerneck lclavicle rclavicle
    lowerneck upperneck
    upperneck head
    lclavicle lhumerus
    lhumerus lradius
    lradius lwrist
    lwrist lhand lthumb
    lhand lfingers
    rclavicle rhumerus
    rhumerus rradius
    rradius rwrist
    rwrist rhand rthumb
    rhand rfingers
  end

#!OML:ASF E:\acrobat2\Project_11_07_03\Capture day 1\Session 1\Acrobat.ASF
:FULLY-SPECIFIED
:DEGREES
280
root 8.24825 18.1818 -31.7187 3.5984 24.6255 -0.634725
lowerback -6.19979 0.0430386 -0.580762
upperback -2.41753 0.113697 -0.653341
thorax 0.987561 0.0624903 -0.336992
lowerneck 1.01149 -4.31979 -2.02963
upperneck 3.77624 -5.93275 5.46171
head 1.25106 -2.92727 2.0061
rclavicle 1.07344e-014 7.95139e-015
rhumerus -38.9136 -0.436127 -85.5917
rradius 25.6794
rwrist 3.01258
rhand -4.69899 -43.3622
rfingers 7.12502
rthumb 21.0826 -72.2361
lclavicle 1.07344e-014 7.95139e-015
lhumerus -32.2805 -13.2467 90.385
lradius 18.9893
lwrist 10.1752
lhand -12.0131 -11.2839
lfingers 7.12502
lthumb 14.0443 18.2216
rfemur -1.52718 6.15705 13.9234
rtibia 0.0567595
rfoot -26.7117 -33.4922
rtoes 22.6826
lfemur 3.38455 0.395916 -15.9106
ltibia 3.36377
lfoot -19.9239 2.49628
ltoes 30.1493
281
root 8.24597 18.1829 -31.713 3.59773 24.7664 -0.61288
lowerback -6.21753 -0.00261811 -0.641211
upperback -2.41272 0.0571732 -0.676953
thorax 1.00221 0.034443 -0.331231
lowerneck 1.06829 -4.40619 -1.85146
upperneck 3.60656 -6.03538 5.28148
head 1.17833 -2.98134 1.91757
rclavicle -1.73937e-016 -1.19271e-015
rhumerus -38.9316 -0.503387 -85.6242
rradius 25.7077
rwrist 3.05347
rhand -4.66288 -43.2431
rfingers 7.12502
rthumb 21.1173 -72.1131
lclavicle -1.73937e-016 -1.19271e-015
lhumerus -32.2777 -13.3198 90.3523
lradius 18.9784
lwrist 10.1398
lhand -14.7815 -10.0647
lfingers 7.12502
lthumb 11.3755 19.6067
rfemur -1.40758 6.27639 13.9486
rtibia -0.0485829
rfoot -27.0277 -33.5832
rtoes 23.0743
lfemur 3.39978 0.451808 -15.8776
ltibia 3.39845
lfoot -19.8548 2.39571
ltoes 29.7493
282
root 8.24513 18.1834 -31.7107 3.61968 24.807 -0.581535
lowerback -6.17876 -0.0266916 -0.624693
upperback -2.45848 0.0244279 -0.731718
thorax 0.93363 0.0180887 -0.398996
lowerneck 0.965722 -4.35885 -1.90078
upperneck 3.91455 -5.98909 5.41624
head 1.29892 -2.95145 1.96583
rclavicle 6.6245e-014 -8.74653e-015
rhumerus -38.976 -0.542417 -85.7015
rradius 25.6988
rwrist 3.11197
rhand -4.71455 -43.0427
rfingers 7.12502
rthumb 21.0677 -71.9182
lclavicle 6.6245e-014 -8.74653e-015
lhumerus -32.3723 -13.3936 90.3221
lradius 19.0242
lwrist 10.2777
lhand -15.1481 -9.74988
lfingers 7.12502
lthumb 11.0219 19.9408
rfemur -1.38775 6.30694 13.9298
rtibia -0.0803393
rfoot -27.046 -33.6543
rtoes 22.9427
lfemur 3.41756 0.485021 -15.8872
ltibia 3.36759
lfoot -19.799 2.36325
ltoes 29.727
283
root 8.24482 18.1837 -31.7097 3.65302 24.8206 -0.552042
lowerback -6.16742 -0.0362192 -0.624893
upperback -2.50265 0.0119492 -0.762412
thorax 0.881898 0.0119699 -0.431241
lowerneck 1.09403 -4.45624 -1.82618
upperneck 3.78453 -6.10989 5.28471
head 1.23251 -3.01603 1.91234
rclavicle -4.66399e-014 -6.75868e-015
rhumerus -39.0477 -0.639189 -85.6972
rradius 25.687
rwrist 3.23952
rhand -4.92398 -42.7414
rfingers 7.12502
rthumb 20.8664 -71.6392
lclavicle -4.66399e-014 -6.75868e-015
lhumerus -32.4857 -13.4833 90.3587
lradius 19.0948
lwrist 10.4697
lhand -12.1082 -11.6734
lfingers 7.12502
lthumb 13.9527 17.8384
rfemur -1.38934 6.39647 13.9003
rtibia -0.0940937
rfoot -27.1494 -33.6779
rtoes 23.1019
lfemur 3.40702 0.469129 -15.9175
ltibia 3.34199
lfoot -19.8246 2.3913
ltoes 29.6646
284
root 8.24484 18.1843 -31.7099 3.65655 24.8254 -0.5316
lowerback -6.17364 -0.0298253 -0.659412
upperback -2.49837 0.0226828 -0.771121
thorax 0.889759 0.0174602 -0.42009
lowerneck 0.945504 -4.43241 -1.95555
upperneck 4.09194 -6.09737 5.47949
head 1.36788 -3.00264 1.99267
rclavicle -3.43897e-014 -1.59028e-014
rhumerus -39.0548 -0.727003 -85.6722
rradius 25.6796
rwrist 3.32128
rhand -4.93894 -42.7738
rfingers 7.12502
rthumb 20.8521 -71.6732
lclavicle -3.43897e-014 -1.59028e-014
lhumerus -32.4845 -13.4513 90.3312
lradius 19.1127
lwrist 10.2415
lhand -14.5208 -10.3452
lfingers 7.12502
lthumb 11.6269 19.3123
rfemur -1.37084 6.48003 13.8768
rtibia -0.100138
rfoot -27.3314 -33.6268
rtoes 23.6358
lfemur 3.39494 0.420498 -15.9536
ltibia 3.37214
lfoot -19.8684 2.43535
ltoes 29.5187
285
root 8.24561 18.1843 -31.7107 3.66068 24.8141 -0.540495
lowerback -6.21929 -0.0318897 -0.699095
upperback -2.46543 0.022365 -0.731399
thorax 0.948942 0.0174389 -0.357081
lowerneck 1.08489 -4.59191 -2.0012
upperneck 3.93272 -6.30272 5.42252
head 1.30096 -3.11095 1.98356
rclavicle -3.50358e-014 3.18055e-015
rhumerus -39.0129 -0.729511 -85.6311
rradius 25.6999
rwrist 3.3484
rhand -4.73583 -43.0877
rfingers 7.12502
rthumb 21.0472 -71.9655
lclavicle -3.50358e-014 3.18055e-015
lhumerus -32.3442 -13.2164 90.2855
lradius 19.0279
lwrist 9.85814
lhand -15.341 -9.78891
lfingers 7.12502
lthumb 10.8358 19.9116
rfemur -1.39736 6.45667 13.8711
rtibia -0.0717893
rfoot -27.369 -33.5501
rtoes 23.7947
lfemur 3.38252 0.415845 -15.9525
ltibia 3.37681
lfoot -19.816 2.46592
ltoes 29.7027
286
root 8.24602 18.1845 -31.7107 3.68177 24.8328 -0.537602
lowerback -6.27993 -0.039785 -0.754349
upperback -2.44027 0.0154515 -0.693023
thorax 1.00845 0.0141841 -0.287182
lowerneck 0.98995 -4.4253 -2.04722
upperneck 3.91933 -6.08204 5.51941
head 1.30947 -2.99902 2.02428
rclavicle -7.70291e-015 -7.15625e-015
rhumerus -38.9769 -0.747006 -85.5659
rradius 25.7099
rwrist 3.39436
rhand -4.67883 -43.1446
rfingers 7.12502
rthumb 21.102 -72.0163
lclavicle -7.70291e-015 -7.15625e-015
lhumerus -32.2856 -13.2362 90.3826
lradius 19.0256
lwrist 10.0037
lhand -14.6024 -10.189
lfingers 7.12502
lthumb 11.5482 19.4728
rfemur -1.43015 6.3408 13.8589
rtibia -0.032221
rfoot -27.2801 -33.5084
rtoes 23.624
lfemur 3.35995 0.408386 -15.9572
ltibia 3.3716
lfoot -19.7553 2.45934
ltoes 29.9043
287
root 8.2465 18.1847 -31.7102 3.66943 24.8617 -0.554071
lowerback -6.29981 -0.0405409 -0.75201
upperback -2.41888 0.0145377 -0.684341
thorax 1.04148 0.0136069 -0.279658
lowerneck 1.05622 -4.61467 -1.98357
upperneck 3.88684 -6.32863 5.34995
head 1.28874 -3.12474 1.95624
rclavicle 3.54582e-014 1.86858e-014
rhumerus -38.8908 -0.743289 -85.5541
rradius 25.6264
rwrist 3.40335
rhand -4.8748 -42.9052
rfingers 7.12502
rthumb 20.9137 -71.7978
lclavicle 3.54582e-014 1.86858e-014
lhumerus -32.3022 -13.4445 90.5022
lradius 19.0885
lwrist 10.3078
lhand -13.2934 -11.0694
lfingers 7.12502
lthumb 12.8103 18.5175
rfemur -1.42116 6.22897 13.8798
rtibia -0.0177439
rfoot -27.1623 -33.5284
rtoes 23.406
lfemur 3.35141 0.380988 -15.9482
ltibia 3.40031
lfoot -19.7577 2.42642
ltoes 29.841
288
root 8.24623 18.1844 -31.7093 3.6355 24.8652 -0.594569
lowerback -6.27656 -0.0539878 -0.728348
upperback -2.41366 -0.00546207 -0.66043
thorax 1.03396 0.00357076 -0.269771
lowerneck 0.941351 -4.50443 -2.05908
upperneck 3.87611 -6.18393 5.4563
head 1.30629 -3.0508 2.00355
rclavicle 3.40667e-014 7.15625e-015
rhumerus -38.8426 -0.66103 -85.5777
rradius 25.5548
rwrist 3.38438
rhand -5.02493 -42.7119
rfingers 7.12502
rthumb 20.7695 -71.6204
lclavicle 3.40667e-014 7.15625e-015
lhumerus -32.2796 -13.4081 90.5103
lradius 19.0784
lwrist 10.2441
lhand -12.7073 -11.4284
lfingers 7.12502
lthumb 13.3753 18.1223
rfemur -1.39714 6.30226 13.9328
rtibia -0.0474626
rfoot -27.1201 -33.6653
rtoes 23.0964
lfemur 3.34932 0.333924 -15.9111
ltibia 3.44216
lfoot -19.739 2.4756
ltoes 29.6629
289
root 8.24533 18.1844 -31.7068 3.6134 24.88 -0.610615
lowerback -6.25927 -0.0714774 -0.73844
upperback -2.42626 -0.0286645 -0.64439
thorax 1.01143 -0.00783961 -0.24924
lowerneck 0.992377 -4.60814 -2.02308
upperneck 3.97511 -6.32253 5.32257
head 1.32796 -3.12053 1.95213
rclavicle -3.07868e-014 -1.59028e-015
rhumerus -38.8877 -0.627086 -85.5839
rradius 25.5407
rwrist 3.40245
rhand -4.91579 -42.7652
rfingers 7.12502
rthumb 20.8743 -71.6621
lclavicle -3.07868e-014 -1.59028e-015
lhumerus -32.3397 -13.4685 90.5589
lradius 19.1413
lwrist 10.3926
lhand -12.5047 -11.2333
lfingers 7.12502
lthumb 13.5706 18.3044
rfemur -1.35298 6.41863 13.9672
rtibia -0.104172
rfoot -27.1053 -33.7749
rtoes 22.8478
lfemur 3.35686 0.312456 -15.8833
ltibia 3.46158
lfoot -19.6527 2.53809
ltoes 29.497
290
root 8.24591 18.1841 -31.7045 3.61929 24.9055 -0.603312
lowerback -6.27727 -0.0683393 -0.739597
upperback -2.43714 -0.0238788 -0.663648
thorax 1.01022 -0.00543798 -0.268048
lowerneck 1.19748 -4.67918 -1.85719
upperneck 3.43502 -6.39044 5.15204
head 1.11092 -3.1644 1.87685
rclavicle -9.46712e-015 1.51076e-014
rhumerus -38.9485 -0.675952 -85.5957
rradius 25.562
rwrist 3.42421
rhand -4.824 -42.8582
rfingers 7.12502
rthumb 20.9625 -71.7454
lclavicle -9.46712e-015 1.51076e-014
lhumerus -32.3981 -13.6611 90.6319
lradius 19.2166
lwrist 10.6456
lhand -12.3462 -11.1529
lfingers 7.12502
lthumb 13.7234 18.3745
rfemur -1.3318 6.3933 13.9625
rtibia -0.116734
rfoot -27.1576 -33.7339
rtoes 23.0667
lfemur 3.35448 0.403663 -15.8687
ltibia 3.47867
lfoot -19.566 2.52332
ltoes 29.1534
291
root 8.24595 18.1835 -31.7045 3.63231 24.8902 -0.616621
lowerback -6.30189 -0.045088 -0.717656
upperback -2.42827 0.00643648 -0.683402
thorax 1.03301 0.00948507 -0.298541
lowerneck 0.953926 -4.62981 -1.92451
upperneck 3.96454 -6.35075 5.3199
head 1.32857 -3.13274 1.93276
rclavicle 2.77056e-014 8.74653e-015
rhumerus -38.9128 -0.721093 -85.6165
rradius 25.5323
rwrist 3.42326
rhand -4.77331 -42.8622
rfingers 7.12502
rthumb 21.0112 -71.744
lclavicle 2.77056e-014 8.74653e-015
lhumerus -32.2762 -13.6076 90.5659
lradius 19.1423
lwrist 10.4503
lhand -12.4213 -11.317
lfingers 7.12502
lthumb 13.651 18.2153
rfemur -1.37425 6.33624 13.9683
rtibia -0.0780192
rfoot -27.1948 -33.6675
rtoes 23.1795
lfemur 3.33054 0.451481 -15.8452
ltibia 3.47841
lfoot -19.6239 2.43292
ltoes 29.3097
292
root 8.24575 18.1835 -31.7053 3.62408 24.8592 -0.634286
lowerback -6.30371 -0.0245115 -0.69634
upperback -2.40851 0.0326783 -0.687391
thorax 1.05435 0.0223724 -0.312749
lowerneck 0.892273 -4.66752 -1.92317
upperneck 4.02022 -6.40339 5.32003
head 1.35904 -3.15732 1.92984
rclavicle 2.11457e-014 2.38542e-015
rhumerus -38.8098 -0.673505 -85.6455
rradius 25.4191
rwrist 3.40183
rhand -4.74732 -42.7227
rfingers 7.12502
rthumb 21.0362 -71.6017
lclavicle 2.11457e-014 2.38542e-015
lhumerus -32.1445 -13.4961 90.4929
lradius 19.0646
lwrist 10.203
lhand -12.5027 -11.4582
lfingers 7.12502
lthumb 13.5725 18.0794
rfemur -1.39711 6.33715 13.984
rtibia -0.0544996
rfoot -27.1927 -33.6192
rtoes 23.1992
lfemur 3.33218 0.409793 -15.8368
ltibia 3.45515
lfoot -19.7408 2.30665
ltoes 29.8446
293
root 8.2464 18.1841 -31.706 3.62631 24.8298 -0.615883
lowerback -6.26712 -0.00820858 -0.694099
upperback -2.42539 0.0538555 -0.698659
thorax 1.01669 0.0330123 -0.324081
lowerneck 0.913975 -4.67469 -1.90608
upperneck 4.01398 -6.41161 5.28709
head 1.35161 -3.162 1.91662
rclavicle -1.17531e-014 -3.18055e-015
rhumerus -38.796 -0.64017 -85.6608
rradius 25.3471
rwrist 3.39869
rhand -4.80765 -42.5451
rfingers 7.12502
rthumb 20.9782 -71.4306
lclavicle -1.17531e-014 -3.18055e-015
lhumerus -32.1476 -13.4843 90.4921
lradius 19.0723
lwrist 10.117
lhand -12.5296 -11.5648
lfingers 7.12502
lthumb 13.5466 17.9746
rfemur -1.40498 6.38144 13.956
rtibia -0.0340762
rfoot -27.3044 -33.5753
rtoes 23.6073
lfemur 3.34478 0.361693 -15.878
ltibia 3.4619
lfoot -19.807 2.3402
ltoes 29.7428
294
root 8.24579 18.1851 -31.7055 3.61525 24.8469 -0.601106
lowerback -6.18393 -0.0131898 -0.708165
upperback -2.46806 0.0469348 -0.708217
thorax 0.926608 0.0298691 -0.326482
lowerneck 0.923945 -4.67314 -1.87152
upperneck 4.06739 -6.40996 5.23614
head 1.3634 -3.1607 1.89392
rclavicle -6.75868e-015 -1.19271e-015
rhumerus -38.8756 -0.671352 -85.6588
rradius 25.3268
rwrist 3.42273
rhand -4.86765 -42.4704
rfingers 7.12502
rthumb 20.9206 -71.3623
lclavicle -6.75868e-015 -1.19271e-015
lhumerus -32.2 -13.4222 90.471
lradius 19.0663
lwrist 10.0142
lhand -12.6084 -11.7552
lfingers 7.12502
lthumb 13.4707 17.7892
rfemur -1.37453 6.41284 13.9512
rtibia -0.0488339
rfoot -27.3175 -33.6548
rtoes 23.5722
lfemur 3.35964 0.307844 -15.8952
ltibia 3.46553
lfoot -19.8477 2.43607
ltoes 29.5249
